<svg width="73" height="104" viewBox="0 0 73 104" fill="none" xmlns="http://www.w3.org/2000/svg">
<path d="M72.7019 39.1591C73.0997 38.7498 73.0997 38.0851 72.7019 37.6759C72.304 37.2643 71.6578 37.2643 71.2577 37.6759L54.3963 55.0109L40.0325 40.2425C40.0279 40.2378 40.0256 40.2354 40.021 40.2331C40.0072 40.2165 39.9911 40.2023 39.975 40.1881C39.9658 40.1787 39.9543 40.1692 39.9451 40.1621C39.929 40.1503 39.9152 40.1384 39.8991 40.1266C39.8853 40.1171 39.8738 40.1077 39.86 40.1006C39.8462 40.0911 39.8324 40.084 39.8186 40.0746C39.8048 40.0651 39.7887 40.0556 39.7726 40.0485C39.7611 40.0415 39.7473 40.0367 39.7358 40.032C39.7174 40.0225 39.699 40.0131 39.6806 40.006C39.6691 40.0012 39.6576 39.9989 39.6461 39.9941C39.6277 39.987 39.607 39.9799 39.5886 39.9752C39.5748 39.9705 39.561 39.9681 39.5495 39.9634C39.5311 39.961 39.5127 39.9563 39.4943 39.9516C39.4782 39.9492 39.4621 39.9468 39.446 39.9445C39.4299 39.9421 39.4138 39.9397 39.4 39.9397C39.3793 39.9374 39.3609 39.9374 39.3402 39.935C39.3288 39.935 39.315 39.935 39.3035 39.935C39.2828 39.935 39.2621 39.935 39.2391 39.9374C39.2276 39.9374 39.2161 39.9397 39.2046 39.9397C39.1839 39.9421 39.1632 39.9468 39.1448 39.9492C39.131 39.9516 39.1195 39.9539 39.1057 39.9563C39.0873 39.9587 39.0712 39.9634 39.0528 39.9681C39.0367 39.9728 39.0229 39.9776 39.0068 39.9823C38.993 39.987 38.9792 39.9918 38.9631 39.9965C38.9447 40.0036 38.9286 40.0107 38.9102 40.0178C38.8987 40.0225 38.8872 40.0296 38.8757 40.0344C38.855 40.0438 38.8366 40.0533 38.8159 40.0651C38.8136 40.0675 38.809 40.0698 38.8044 40.0722L33.5013 43.1735C31.9904 43.9825 30.2726 44.1126 28.6628 43.5449C27.2876 43.0576 26.1561 42.1208 25.4133 40.867C26.5793 39.8853 29.4332 37.6735 33.6117 35.6202C34.7455 35.0619 36.0195 34.901 37.3004 34.9767C37.3464 34.9838 37.3924 34.9886 37.4384 34.9886C37.443 34.9886 37.4476 34.9862 37.4499 34.9862C41.3226 35.2677 45.1907 37.6451 45.2413 37.6782C45.6483 37.9313 46.1726 37.8651 46.5038 37.5126L58.6439 24.6864C59.0371 24.2701 59.0302 23.6054 58.6255 23.2008C58.2207 22.7963 57.5745 22.8058 57.1813 23.2221L45.5885 35.4711C44.2087 34.7142 41.0466 33.1765 37.7075 32.9068C31.5006 29.7937 25.0477 31.4071 23.0216 32.0505L16.6607 25.5073C16.2605 25.098 15.6143 25.098 15.2165 25.5073C14.8186 25.9189 14.8186 26.5836 15.2165 26.9929L22.0259 33.9926C22.3087 34.286 22.7319 34.3782 23.109 34.2339C23.1665 34.2103 27.8901 32.429 33.1633 33.529C33.0184 33.5905 32.8735 33.6544 32.7309 33.7253C26.8874 36.5972 23.5759 39.7103 23.4356 39.8404C23.1136 40.1479 23.017 40.6352 23.1987 41.0468C24.1416 43.1782 25.8457 44.7703 27.9982 45.5296C28.8767 45.8395 29.7758 45.9933 30.6727 45.9933C31.9766 45.9933 33.2691 45.6692 34.4649 45.0257C34.4741 45.0186 34.4856 45.0139 34.4948 45.0068L39.1379 42.2911L55.1828 58.7887L58.5013 62.2023C58.9451 62.6588 59.1912 63.2668 59.1912 63.9126C59.1912 64.5584 58.9451 65.1663 58.5013 65.6229L56.8363 67.3356L52.8578 63.2431L51.8529 62.2117C51.455 61.8001 50.8088 61.8001 50.4087 62.2117C50.0108 62.621 50.0108 63.2857 50.4087 63.6949L55.7393 69.1736C56.6569 70.1175 56.6569 71.6528 55.7393 72.5966C55.2932 73.0556 54.7022 73.3063 54.0744 73.3063C53.4443 73.3063 52.8532 73.0556 52.4094 72.5966L51.4044 71.5652L45.7403 65.7412C45.3424 65.3319 44.6962 65.3319 44.2984 65.7412C43.8982 66.1504 43.8982 66.8151 44.2984 67.2244L49.9602 73.0485C50.8801 73.9923 50.8801 75.5276 49.9602 76.4715C49.0426 77.4153 47.5501 77.4153 46.6326 76.4715L40.9684 70.6474C40.9684 70.6474 40.9661 70.6474 40.9661 70.645L39.63 69.2706C39.2299 68.8614 38.5836 68.8614 38.1858 69.2706C37.7857 69.6799 37.7857 70.3446 38.1858 70.7562L41.3663 74.0254C42.2839 74.9693 42.2287 76.5637 41.2421 77.5786C40.2555 78.5934 38.7055 78.6502 37.788 77.7087L36.123 75.996L36.8888 75.2082C37.6937 74.3803 38.1375 73.2803 38.1375 72.1117C38.1375 70.9407 37.6937 69.8407 36.8888 69.0151L36.6956 68.8164C35.8355 67.9293 34.6926 67.5059 33.5611 67.539C33.7727 67.0139 33.8831 66.4485 33.8831 65.8642C33.8831 64.6956 33.4392 63.5932 32.6343 62.7676L32.4412 62.5689C31.7283 61.8356 30.8038 61.3956 29.8103 61.3033C29.9253 60.9035 29.9851 60.4848 29.9851 60.0567C29.9851 58.8857 29.5436 57.7857 28.7387 56.9577L28.5455 56.7614C27.7406 55.9335 26.6712 55.4769 25.5352 55.4769C25.1167 55.4769 24.7096 55.5408 24.3187 55.659C24.2313 54.6371 23.8035 53.6861 23.0883 52.9528L22.8975 52.7541C22.0926 51.9285 21.0232 51.472 19.8849 51.472C18.7465 51.472 17.6772 51.9285 16.8723 52.7541L15.1958 54.4786L1.74259 40.6447C1.34244 40.2354 0.696232 40.2354 0.298385 40.6447C-0.0994616 41.0539 -0.0994616 41.7187 0.298385 42.1303L13.7539 55.9642L12.6178 57.1304C10.9575 58.8384 10.9575 61.618 12.6178 63.3235L15.0992 65.8784C15.1521 65.9304 15.2073 65.9754 15.2671 66.0156C15.2671 66.0227 15.2648 66.0298 15.2648 66.0369C15.2648 67.2055 15.7086 68.3055 16.5135 69.1334C17.3966 70.0418 18.5579 70.496 19.717 70.496C20.124 70.496 20.5311 70.4392 20.9243 70.328C20.991 71.3902 21.4234 72.379 22.1616 73.1384L22.5272 73.5145C23.3114 74.3188 24.3394 74.7209 25.3673 74.7209C25.7376 74.7209 26.1078 74.6689 26.4666 74.5648C26.4551 74.6996 26.4482 74.8368 26.4482 74.974C26.4482 76.1426 26.892 77.2426 27.6969 78.0706L27.8878 78.2693C28.7203 79.1233 29.8103 79.5491 30.9004 79.5491C31.9904 79.5491 33.0828 79.1233 33.913 78.2693L34.6788 77.4816L36.3438 79.1919C37.1785 80.0506 38.2801 80.4764 39.3977 80.4764C40.5752 80.4764 41.771 80.0033 42.6863 79.0618C43.3463 78.3829 43.7695 77.5525 43.9534 76.6867L45.1884 77.957C46.0462 78.837 47.1707 79.277 48.2975 79.277C49.4221 79.277 50.5489 78.837 51.4044 77.957C52.161 77.1788 52.5819 76.1852 52.6716 75.168C53.1269 75.3242 53.6006 75.4046 54.0744 75.4046C55.1989 75.4046 56.3258 74.9622 57.1813 74.0822C58.5082 72.7173 58.8071 70.69 58.0804 69.027L59.9455 67.1085C61.6588 65.3461 61.6588 62.479 59.9455 60.7167L56.6247 57.3031L55.8405 56.4965L72.7019 39.1591ZM14.062 61.8403C13.1974 60.9509 13.1974 59.5055 14.062 58.616L18.3165 54.2397C18.735 53.8092 19.2938 53.5726 19.8849 53.5726C20.4782 53.5726 21.0347 53.8092 21.4532 54.2397L21.6464 54.436C22.065 54.8689 22.2949 55.4414 22.2949 56.0494C22.2949 56.6597 22.065 57.2322 21.6464 57.6627L15.8213 63.65L14.062 61.8403ZM17.9577 67.6478C17.5392 67.2173 17.3069 66.6448 17.3069 66.0369C17.3069 65.4265 17.5392 64.8541 17.9577 64.4235L21.2808 61.0076L23.0883 59.1459C23.0906 59.1459 23.0906 59.1459 23.0906 59.1459L23.9668 58.2446C24.3854 57.8141 24.9419 57.5775 25.5352 57.5775C26.1262 57.5775 26.6827 57.8141 27.1013 58.2446L27.2945 58.4433C27.713 58.8739 27.9453 59.4463 27.9453 60.0567C27.9453 60.6646 27.713 61.2371 27.2945 61.6676L21.4785 67.6478C20.5081 68.6461 18.9282 68.6461 17.9577 67.6478ZM23.9714 72.0313L23.6058 71.6551C23.1872 71.2246 22.9572 70.6521 22.9572 70.0418C22.9572 69.4338 23.1872 68.8614 23.6058 68.4308L25.7744 66.2001L27.8625 64.0545C28.281 63.624 28.8376 63.385 29.4309 63.385C30.0219 63.385 30.5807 63.624 30.9993 64.0545L31.1901 64.2508C31.6087 64.6838 31.841 65.2562 31.841 65.8642C31.841 66.4745 31.6087 67.047 31.1901 67.4775L26.7632 72.0313C25.9928 72.8214 24.7395 72.8214 23.9714 72.0313ZM29.332 76.7837L29.1411 76.5874C28.7203 76.1545 28.4903 75.582 28.4903 74.974C28.4903 74.3637 28.7203 73.7913 29.1411 73.3607L32.1169 70.302C32.5493 69.8573 33.1173 69.6349 33.6853 69.6349C34.2533 69.6349 34.8214 69.8573 35.2537 70.302L35.4446 70.4984C35.8631 70.9289 36.0954 71.5014 36.0954 72.1117C36.0954 72.7196 35.8631 73.2921 35.4446 73.725L33.9567 75.2532C33.9567 75.2532 33.9567 75.2532 33.9567 75.2556L32.4688 76.7837C31.6041 77.6732 30.1967 77.6732 29.332 76.7837Z" fill="white"/>
<path d="M49.4711 2.75262C49.2986 2.60123 49.1077 2.46639 48.9008 2.34574C48.6984 2.22037 48.4983 2.13284 48.3028 2.0808C48.0016 2.01219 47.7463 2.02402 47.5393 2.11865C47.3301 2.21327 47.2013 2.38123 47.153 2.62015C47.0978 2.86144 47.1553 3.08144 47.3278 3.28251C47.4979 3.47886 47.7532 3.69412 48.0913 3.92595C48.3534 4.10337 48.5719 4.27606 48.7444 4.44638C48.9146 4.61197 49.0387 4.82014 49.1123 5.07089C49.1859 5.31692 49.1859 5.60552 49.1123 5.93197C49.0433 6.23476 48.91 6.49025 48.7076 6.69842C48.5098 6.91132 48.2591 7.05799 47.9533 7.13368C47.6451 7.20938 47.3117 7.20229 46.9506 7.11476C46.6126 7.03196 46.2998 6.89713 46.0123 6.70788C45.7226 6.51863 45.4811 6.31519 45.2856 6.09283L45.7456 5.56294C45.8928 5.75928 46.0882 5.93906 46.3343 6.10229C46.5781 6.26788 46.8149 6.3767 47.0426 6.43347C47.337 6.50444 47.6129 6.48788 47.8705 6.38616C48.1281 6.27971 48.289 6.07154 48.358 5.76165C48.4132 5.5038 48.3626 5.2767 48.2109 5.08036C48.0637 4.87928 47.8383 4.66875 47.5393 4.44638C47.2496 4.25713 47.0173 4.08208 46.8402 3.91649C46.6609 3.75326 46.5206 3.55456 46.4171 3.32036C46.3182 3.08144 46.3021 2.8094 46.3711 2.5066C46.4677 2.0666 46.6977 1.74488 47.061 1.54144C47.429 1.34037 47.8544 1.28596 48.3396 1.38058C48.933 1.52725 49.4527 1.81349 49.8942 2.24166L49.4711 2.75262Z" fill="white"/>
<path d="M34.1382 2.97118C34.1382 2.44129 34.267 1.94924 34.5245 1.49505C34.7867 1.04086 35.1362 0.678924 35.5732 0.406881C36.0147 0.137204 36.4954 0 37.0174 0C37.5325 0 38.0109 0.137204 38.4524 0.406881C38.8939 0.678924 39.2458 1.04086 39.5103 1.49505C39.7724 1.94924 39.9058 2.44129 39.9058 2.97118C39.9058 3.50817 39.7724 4.00257 39.5103 4.45677C39.2527 4.91096 38.8985 5.27053 38.4524 5.53548C38.0109 5.80042 37.5325 5.93289 37.0174 5.93289C36.4954 5.93289 36.0147 5.80515 35.5732 5.54494C35.1316 5.27999 34.7821 4.92042 34.5245 4.46623C34.267 4.01204 34.1382 3.51526 34.1382 2.97118ZM34.9201 2.98064C34.9201 3.37333 35.0121 3.73763 35.196 4.07827C35.3846 4.41419 35.6422 4.6815 35.9687 4.88257C36.293 5.07892 36.6494 5.17591 37.0358 5.17591C37.4152 5.17591 37.7648 5.07892 38.0845 4.88257C38.4087 4.6886 38.664 4.41892 38.8479 4.07827C39.0319 3.73763 39.1239 3.3686 39.1239 2.97118C39.1239 2.56903 39.0273 2.19527 38.8387 1.85462C38.6548 1.51398 38.3995 1.24666 38.0753 1.05032C37.7556 0.849246 37.4037 0.747526 37.0174 0.747526C36.631 0.747526 36.2746 0.849246 35.9503 1.05032C35.6307 1.25376 35.38 1.52344 35.196 1.86408C35.0121 2.20473 34.9201 2.57849 34.9201 2.98064Z" fill="white"/>
<path d="M27.2334 2.07283C27.0126 2.01133 26.7826 1.97348 26.5435 1.95929C26.3089 1.94036 26.095 1.95692 25.8995 2.0066C25.5983 2.07757 25.3775 2.20294 25.2372 2.38509C25.0947 2.56961 25.0487 2.78014 25.0993 3.01907C25.1544 3.26036 25.3016 3.43068 25.5408 3.53003C25.78 3.62466 26.1042 3.70036 26.5159 3.75713C26.8286 3.79498 27.0954 3.85175 27.3162 3.92745C27.5369 3.99842 27.7347 4.12616 27.9141 4.31541C28.0912 4.49992 28.2176 4.75541 28.2912 5.08186C28.3579 5.38465 28.3464 5.67798 28.2544 5.96185C28.167 6.24099 28.0061 6.48228 27.7669 6.69045C27.5277 6.89862 27.2265 7.04766 26.8654 7.13518C26.5274 7.21798 26.187 7.23927 25.8444 7.20142C25.4994 7.16357 25.1935 7.08551 24.9245 6.96486L25.1085 6.28357C25.3292 6.39239 25.5822 6.46336 25.872 6.50121C26.1594 6.53905 26.417 6.52959 26.6446 6.47282C26.939 6.40422 27.1782 6.26465 27.3622 6.05648C27.5461 5.84357 27.6036 5.58099 27.5369 5.2711C27.4817 5.01325 27.3392 4.83347 27.1138 4.73175C26.893 4.6253 26.601 4.53777 26.2399 4.4668C25.9018 4.42895 25.6167 4.37928 25.3844 4.31541C25.1498 4.2539 24.936 4.14035 24.7405 3.97476C24.5519 3.80444 24.4231 3.56788 24.3542 3.26509C24.2576 2.82509 24.3266 2.43004 24.5657 2.0823C24.798 1.73692 25.1567 1.49563 25.642 1.36316C26.2353 1.21886 26.8217 1.24015 27.3989 1.4294L27.2334 2.07283Z" fill="white"/>
<path d="M56.4485 92.4727L58.8494 96.8726L61.3607 95.4249L61.7194 96.0873L58.555 97.9135L55.7954 92.8512L56.4485 92.4727Z" fill="white"/>
<path d="M50.3352 95.2231L52.1381 100.721L51.4206 100.967L49.6177 95.4692L50.3352 95.2231Z" fill="white"/>
<path d="M44.0196 97.9977C43.8034 97.9172 43.5804 97.8604 43.3481 97.8273C43.1135 97.7966 42.8974 97.7942 42.695 97.8179C42.3937 97.8628 42.1615 97.9693 41.9959 98.1396C41.8349 98.3052 41.7751 98.5086 41.8119 98.7546C41.8418 98.9959 41.9729 99.1757 42.2075 99.294C42.4397 99.4146 42.7548 99.5211 43.1549 99.6157C43.4677 99.6725 43.7276 99.7482 43.9368 99.8428C44.1507 99.9374 44.337 100.086 44.498 100.288C44.6566 100.491 44.7601 100.761 44.8107 101.101C44.8521 101.404 44.8153 101.693 44.7003 101.962C44.5899 102.234 44.406 102.464 44.1484 102.653C43.8954 102.838 43.5873 102.954 43.2193 103.003C42.8744 103.055 42.534 103.046 42.1983 102.975C41.8602 102.906 41.5635 102.805 41.306 102.672L41.5451 102.01C41.7521 102.13 41.9982 102.225 42.281 102.294C42.5685 102.357 42.8284 102.369 43.0629 102.331C43.3573 102.289 43.6011 102.171 43.7988 101.981C44.0012 101.787 44.0794 101.534 44.038 101.224C44.0012 100.959 43.877 100.765 43.6701 100.638C43.4608 100.512 43.1779 100.401 42.8238 100.306C42.4857 100.231 42.2029 100.153 41.9775 100.07C41.7567 99.9824 41.5566 99.8475 41.3796 99.663C41.2002 99.4809 41.0898 99.2372 41.0484 98.9344C40.9817 98.4802 41.0806 98.0923 41.352 97.7706C41.621 97.4488 41.9982 97.2407 42.4834 97.146C43.0836 97.0585 43.6655 97.1342 44.2312 97.3731L44.0196 97.9977Z" fill="white"/>
<path d="M34.0042 101.862L31.8425 101.701L31.1342 103.177L30.3799 103.12L33.2683 97.2817H33.3143L35.338 103.498L34.4733 103.432L34.0042 101.862ZM33.7926 101.18L33.1303 99.0039L32.1552 101.057L33.7926 101.18Z" fill="white"/>
<path d="M23.6206 101.687L22.9675 99.2458C22.9238 99.234 22.8617 99.215 22.7835 99.189L21.9832 98.943L21.3761 100.987L20.6494 100.76L22.296 95.2148L23.7402 95.669C24.1082 95.7826 24.414 95.9505 24.6601 96.1705C24.9107 96.3929 25.0786 96.6602 25.166 96.9748C25.258 97.2847 25.2488 97.6183 25.1384 97.9778C25.0395 98.3256 24.8739 98.6189 24.6417 98.8578C24.4071 99.0991 24.1173 99.2434 23.7678 99.2931L24.4669 101.952L23.6206 101.687ZM22.9767 98.4699C23.3677 98.5905 23.6781 98.5716 23.9058 98.4131C24.138 98.257 24.2967 98.0417 24.3841 97.7697C24.4255 97.6065 24.4347 97.4361 24.4117 97.2587C24.3933 97.0837 24.3197 96.9157 24.1909 96.7572C24.0668 96.6011 23.8828 96.4828 23.639 96.4071L22.8111 96.1516L22.1948 98.2239L22.9767 98.4699Z" fill="white"/>
<path d="M15.0306 94.9312C15.2513 95.2033 15.3847 95.4895 15.4353 95.7923C15.4836 96.0951 15.4307 96.3837 15.2789 96.6628C15.1064 96.9845 14.8857 97.2069 14.6166 97.3346C14.3453 97.46 14.0601 97.5002 13.7611 97.4577C13.4599 97.4127 13.1632 97.3063 12.8689 97.1359L11.4062 96.2843L14.1659 91.2314L15.4353 91.9695C15.9366 92.2605 16.2678 92.5917 16.4288 92.9631C16.5874 93.3297 16.553 93.7248 16.3276 94.1458C16.1804 94.4179 15.9964 94.619 15.7757 94.7514C15.5549 94.8792 15.3065 94.9383 15.0306 94.9312ZM13.614 93.8147L14.3682 94.2499C14.6189 94.3966 14.8489 94.4344 15.0582 94.3635C15.272 94.2878 15.4445 94.134 15.5733 93.8998C15.7136 93.6491 15.7389 93.4149 15.6469 93.1996C15.5595 92.9796 15.3801 92.788 15.1041 92.6224L14.4602 92.2534L13.614 93.8147ZM13.1816 96.4925C13.4691 96.6557 13.7427 96.722 14.0003 96.6912C14.2579 96.6652 14.4556 96.5256 14.5982 96.2749C14.7454 96.0028 14.75 95.7497 14.6166 95.5084C14.4878 95.2695 14.2786 95.0684 13.9911 94.9028L13.2552 94.477L12.3997 96.0383L13.1816 96.4925Z" fill="white"/>
</svg>
